<?xml version="1.0" encoding="utf-8"?>
<!-- Generator: Adobe Illustrator 28.2.0, SVG Export Plug-In . SVG Version: 6.00 Build 0)  -->
<svg version="1.1" id="a" xmlns="http://www.w3.org/2000/svg"
    xmlns:xlink="http://www.w3.org/1999/xlink" x="0px" y="0px"
    viewBox="0 0 959.2 199.5" style="enable-background:new 0 0 959.2 199.5;" xml:space="preserve">
<g>
	<path style="fill:#FFFFFF;" d="M218.6,113.4c-1.8-1.9-4.2-3.7-7.2-5.1s-6.9-2.8-11.4-4c-3.2-0.7-5.9-1.5-7.9-2.4s-3.6-1.6-4.6-2.2
		c-0.9-0.6-1.6-1.5-2.2-2.4c-0.5-1-0.8-2-0.9-3.1c0-1.3,0.2-2.4,0.8-3.4c0.5-1,1.2-1.8,2.2-2.4c0.9-0.6,2.1-1.1,3.5-1.5
		s3-0.5,4.7-0.5c1.9,0,3.9,0.4,6,1.2c2.1,0.8,4.2,1.8,6.3,3.1c2.1,1.3,4,2.8,5.8,4.5l9.5-10.4c-2.1-2.4-4.7-4.5-7.7-6.2
		s-6.3-3-9.8-4c-3.5-0.9-7.1-1.4-10.8-1.4s-7.1,0.5-10.4,1.5s-6.3,2.5-8.8,4.5s-4.5,4.2-5.9,6.9c-1.4,2.6-2.2,5.6-2.2,8.8
		c0,2.6,0.4,5,1.2,7.2s2,4.2,3.5,6c1.9,2.1,4.5,4.1,7.8,5.8s7.5,3.2,12.5,4.5c3.1,0.7,5.7,1.5,7.7,2.2c2,0.8,3.5,1.4,4.4,2.1
		c1.7,1.3,2.5,3.1,2.5,5.3c0,1.2-0.3,2.3-0.8,3.3s-1.2,1.8-2.2,2.6c-0.9,0.8-2,1.3-3.3,1.7s-2.7,0.6-4.2,0.6
		c-3.8,0-7.4-0.7-10.9-2.1c-3.4-1.4-6.5-3.7-9.3-6.8l-11.1,9.6c3.2,4.1,7.5,7.2,12.6,9.4s11,3.3,17.5,3.3c5.3,0,10-1,14.3-2.9
		c4.2-1.9,7.6-4.6,10-8.1c2.5-3.4,3.7-7.3,3.7-11.7c0-2.7-0.4-5.1-1.1-7.4C221.6,117,220.4,115.1,218.6,113.4L218.6,113.4z"/>
	<path style="fill:#FFFFFF;" d="M296.9,83.3c-3.1-3.2-6.7-5.7-10.9-7.6s-8.7-2.8-13.5-2.8c-5.5,0-10.5,0.9-15.1,2.9
		c-4.6,1.9-8.5,4.6-11.8,8.1s-5.9,7.6-7.7,12.3c-1.9,4.7-2.8,10-2.8,15.7c0,7.2,1.6,13.7,4.9,19.3c3.3,5.6,7.9,10.1,13.8,13.3
		c5.9,3.2,12.7,4.9,20.4,4.9c3.4,0,6.9-0.5,10.4-1.4s6.9-2.2,10.1-3.8s6.1-3.6,8.6-5.9l-8.5-11.8c-3.3,2.9-6.5,4.9-9.3,6
		c-2.9,1.1-6,1.7-9.5,1.7c-4.9,0-9.2-0.9-12.9-2.9c-3.7-1.9-6.5-4.6-8.5-8.1c-1.3-2.4-2.2-5-2.7-7.9H306l0.1-6
		c0.1-5.2-0.7-10-2.3-14.4C302.2,90.3,299.9,86.5,296.9,83.3L296.9,83.3z M261,90.7c3.1-1.8,6.9-2.6,11.5-2.6c3,0,5.7,0.6,8.1,1.9
		s4.5,3,6.1,5.1s2.5,4.7,2.8,7.6v0.7h-37.2c0.4-1.9,0.9-3.6,1.7-5.1C255.6,95,257.9,92.5,261,90.7L261,90.7z"/>
	<path style="fill:#FFFFFF;" d="M374.9,84.9c-1.4-2.1-3.1-4.1-5.1-5.8c-2.3-1.9-5-3.5-8.1-4.5c-3.1-1.1-6.5-1.6-10.2-1.6
		c-6.4,0-12.2,1.6-17.3,4.9s-9.1,7.8-12.1,13.5s-4.5,12.3-4.5,19.6s1.5,13.9,4.5,19.6c3,5.8,6.9,10.3,11.8,13.6s10.4,5,16.4,5
		c3.5,0,6.8-0.6,10-1.7c3.1-1.1,5.9-2.6,8.5-4.4c2.3-1.6,4.3-3.5,5.9-5.6V148h17.4V74.6h-17.3L374.9,84.9L374.9,84.9z M365.7,131.2
		c-3.1,1.9-6.6,2.9-10.6,2.9s-7.5-1-10.5-2.9s-5.4-4.7-7-8.1s-2.5-7.5-2.5-12.1s0.8-8.4,2.5-11.8s4-6.1,7-8.1s6.5-2.9,10.5-2.9
		s7.5,1,10.6,2.9s5.5,4.6,7.2,8.1c1.7,3.4,2.6,7.4,2.6,11.8s-0.9,8.6-2.6,12.1C371.1,126.6,368.7,129.3,365.7,131.2z"/>
	<polygon style="fill:#FFFFFF;" points="438.4,55.9 421.2,55.9 421.2,74.6 406.7,74.6 406.7,90.4 421.2,90.4 421.2,148 438.4,148 
		438.4,90.4 454.4,90.4 454.4,74.6 438.4,74.6 	"/>
	<path style="fill:#FFFFFF;" d="M519.1,113.4c-1.8-1.9-4.2-3.7-7.2-5.1s-6.9-2.8-11.4-4c-3.2-0.7-5.9-1.5-7.9-2.4s-3.6-1.6-4.6-2.2
		c-0.9-0.6-1.7-1.5-2.2-2.4c-0.5-1-0.8-2-0.9-3.1c0-1.3,0.2-2.4,0.8-3.4c0.5-1,1.2-1.8,2.2-2.4c0.9-0.6,2.1-1.1,3.5-1.5
		c1.4-0.3,3-0.5,4.7-0.5c1.9,0,3.8,0.4,6,1.2c2.1,0.8,4.2,1.8,6.3,3.1c2.1,1.3,4,2.8,5.8,4.5l9.5-10.4c-2.1-2.4-4.7-4.5-7.7-6.2
		s-6.3-3-9.8-4c-3.5-0.9-7.1-1.4-10.8-1.4s-7.1,0.5-10.4,1.5s-6.3,2.5-8.8,4.5s-4.5,4.2-5.9,6.9c-1.4,2.6-2.2,5.6-2.2,8.8
		c0,2.6,0.4,5,1.2,7.2c0.8,2.2,2,4.2,3.5,6c1.9,2.1,4.5,4.1,7.8,5.8c3.3,1.7,7.5,3.2,12.5,4.5c3.2,0.7,5.7,1.5,7.7,2.2
		c2,0.8,3.5,1.4,4.4,2.1c1.7,1.3,2.5,3.1,2.5,5.3c0,1.2-0.3,2.3-0.8,3.3s-1.2,1.8-2.2,2.6c-0.9,0.8-2,1.3-3.3,1.7s-2.7,0.6-4.2,0.6
		c-3.8,0-7.4-0.7-10.9-2.1c-3.4-1.4-6.5-3.7-9.3-6.8l-11.1,9.6c3.2,4.1,7.5,7.2,12.6,9.4c5.2,2.2,11,3.3,17.5,3.3
		c5.3,0,10-1,14.3-2.9c4.2-1.9,7.6-4.6,10-8.1c2.5-3.4,3.7-7.3,3.7-11.7c0-2.7-0.4-5.1-1.1-7.4C522.2,117,520.9,115.1,519.1,113.4
		L519.1,113.4z"/>
	<path style="fill:#FFFFFF;" d="M640.4,76.7c-3.7-2.2-8.4-3.3-13.9-3.3c-2.5,0-5,0.4-7.6,1.1c-2.5,0.8-5,1.8-7.3,3.3
		c-2.3,1.4-4.4,3.1-6.3,4.9c-1.6,1.6-2.9,3.3-3.9,5.2c-0.9-2.6-2.1-4.8-3.6-6.7c-2.1-2.7-4.7-4.7-7.8-5.9s-6.7-1.9-10.7-1.9
		c-2.7,0-5.3,0.4-7.9,1.3s-5.1,2.1-7.4,3.6s-4.3,3.3-6,5.4c-0.4,0.5-0.7,0.9-1,1.4l-0.2-10.6H540v73.4h17.3v-44
		c0-2.2,0.4-4.3,1.2-6.1c0.8-1.9,2-3.5,3.5-4.9s3.2-2.5,5.3-3.3c2-0.8,4.2-1.2,6.5-1.2c2.8,0,5.2,0.6,7.1,1.9s3.4,3.1,4.5,5.4
		c1,2.4,1.5,5.3,1.5,8.8v43.3h17.3v-43.9c0-2.2,0.4-4.3,1.2-6.1c0.8-1.9,2-3.5,3.5-4.9s3.3-2.6,5.4-3.3c2.1-0.8,4.3-1.2,6.6-1.2
		c3,0,5.5,0.6,7.5,1.7s3.5,2.9,4.5,5.4c1,2.4,1.5,5.5,1.5,9.2v43.2h17.3v-44.3c0-6.7-0.9-12.3-2.8-16.9S644.1,78.9,640.4,76.7
		L640.4,76.7z"/>
	<path style="fill:#FFFFFF;" d="M724.1,84.9c-1.4-2.1-3.1-4.1-5.2-5.8c-2.3-1.9-5-3.5-8.1-4.5c-3.1-1.1-6.5-1.6-10.2-1.6
		c-6.4,0-12.2,1.6-17.3,4.9c-5.1,3.2-9.2,7.8-12.1,13.5s-4.5,12.3-4.5,19.6s1.5,13.9,4.5,19.6c3,5.8,6.9,10.3,11.8,13.6
		c4.9,3.3,10.4,5,16.4,5c3.5,0,6.8-0.6,10-1.7c3.1-1.1,5.9-2.6,8.5-4.4c2.3-1.6,4.3-3.5,5.9-5.6V148h17.4V74.6h-17.3L724.1,84.9
		L724.1,84.9z M714.9,131.2c-3.1,1.9-6.6,2.9-10.6,2.9s-7.5-1-10.5-2.9s-5.4-4.7-7-8.1c-1.7-3.5-2.5-7.5-2.5-12.1s0.8-8.4,2.5-11.8
		s4-6.1,7-8.1s6.5-2.9,10.5-2.9s7.5,1,10.6,2.9s5.5,4.6,7.2,8.1c1.7,3.4,2.6,7.4,2.6,11.8s-0.9,8.6-2.6,12.1
		C720.4,126.6,718,129.3,714.9,131.2z"/>
	<polygon style="fill:#FFFFFF;" points="787.6,55.9 770.5,55.9 770.5,74.6 756,74.6 756,90.4 770.5,90.4 770.5,148 787.6,148 
		787.6,90.4 803.6,90.4 803.6,74.6 787.6,74.6 	"/>
	<path style="fill:#FFFFFF;" d="M839.5,91.2c3.2-2,6.8-3,10.9-3c2.4,0,4.8,0.5,7.2,1.4s4.7,2.2,6.8,3.8s3.9,3.3,5.3,5.3l9.5-11.4
		c-3-4.5-7.2-7.9-12.5-10.4c-5.4-2.5-11.4-3.8-18-3.8s-13,1.7-18.5,5s-9.8,7.9-13,13.6c-3.2,5.8-4.7,12.3-4.7,19.5
		s1.6,13.7,4.7,19.5c3.2,5.8,7.5,10.3,13,13.6s11.7,5,18.5,5c6.1,0,12-1.3,17.5-3.8c5.5-2.6,9.9-5.9,13-10l-9.5-11.6
		c-1.8,2.2-3.7,4.1-5.7,5.6s-4.2,2.6-6.5,3.4c-2.3,0.8-4.6,1.2-7,1.2c-4,0-7.6-1-10.9-3.1s-5.8-4.8-7.7-8.2
		c-1.9-3.4-2.8-7.3-2.8-11.7s0.9-8.3,2.8-11.8C833.8,95.9,836.3,93.2,839.5,91.2L839.5,91.2z"/>
	<path style="fill:#FFFFFF;" d="M956.3,86.4c-1.9-4.5-4.7-7.8-8.5-10s-8.4-3.3-14-3.3c-3.9,0-7.7,0.8-11.4,2.5s-6.9,3.9-9.6,6.6
		c-0.8,0.8-1.6,1.7-2.2,2.6V49.9h-17V148h17.1v-44.3c0-2.2,0.4-4.3,1.3-6.1s2.1-3.5,3.6-4.9s3.3-2.6,5.4-3.3s4.4-1.2,6.9-1.2
		c3.1-0.1,5.7,0.4,7.8,1.6s3.7,3,4.7,5.4c1,2.5,1.5,5.6,1.5,9.3V148H959v-44.8C959.2,96.4,958.2,90.9,956.3,86.4L956.3,86.4z"/>
	<g>
		<path style="fill:#479DC7;" d="M98.7,79.8c-3.1-3.1-3.1-8.2,0-11.4l26-26c9.7-9.7,9.7-25.4,0-35.1s-25.4-9.7-35.1,0l-48,48
			c-0.4,0.4-0.9,0.9-1.3,1.4c0.8,0.6,1.5,1.2,2.2,1.9l48,48c9.9,9.9,10.3,25.8,1.3,36.2c4.5,3.6,9.9,5.3,15.4,5.3
			c6.4,0,12.7-2.4,17.6-7.3c9.7-9.7,9.7-25.4,0-35.1L98.7,79.8L98.7,79.8z"/>
		<path style="fill:#DB6971;" d="M41.5,92.8c-9.9-9.9-10.3-25.8-1.3-36.2c-4.5-3.6-9.9-5.3-15.4-5.3c-6.4,0-12.7,2.4-17.6,7.3
			c-9.7,9.7-9.7,25.4,0,35.1l26,26c3.1,3.1,3.1,8.2,0,11.4l-26,26c-9.7,9.7-9.7,25.4,0,35.1s25.4,9.7,35.1,0l48-48
			c0.4-0.4,0.9-0.9,1.3-1.4c-0.8-0.6-1.5-1.2-2.2-1.9L41.5,92.8L41.5,92.8z"/>
		<path style="fill:#742769;" d="M90.4,106.6l-48-48c-0.7-0.7-1.4-1.3-2.2-1.9c-9.1,10.4-8.7,26.2,1.3,36.2l48,48
			c0.7,0.7,1.4,1.3,2.2,1.9C100.8,132.4,100.4,116.5,90.4,106.6z"/>
	</g>
</g>
</svg>